<svg xmlns="http://www.w3.org/2000/svg" width="1024" height="1024" class="w-auto h-[15px] transition-all duration-300 fill-pacamara-primary/60 hover:fill-pacamara-secondary dark:fill-pacamara-accent dark:hover:fill-pacamara-secondary"><path d="M530.286 438.893H54.857C24.56 438.893 0 463.451 0 493.746v475.395c0 30.295 24.56 54.849 54.857 54.849h475.429c30.297 0 54.857-24.554 54.857-54.849V493.746c0-30.295-24.56-54.853-54.857-54.853Zm-384 438.826c-40.395 0-73.143-32.746-73.143-73.138 0-40.391 32.748-73.137 73.143-73.137 40.394 0 73.143 32.746 73.143 73.137 0 40.392-32.749 73.138-73.143 73.138Zm182.857 0c-40.394 0-73.143-32.746-73.143-73.138 0-40.391 32.749-73.137 73.143-73.137s73.143 32.746 73.143 73.137c0 40.392-32.749 73.138-73.143 73.138Z"/><path d="M530.286 438.899H54.857C24.56 438.899 0 463.457 0 493.752v475.395C0 999.442 24.56 1024 54.857 1024h475.429c30.297 0 54.857-24.558 54.857-54.853V493.752c0-30.295-24.56-54.853-54.857-54.853Zm-384 438.826c-40.395 0-73.143-32.746-73.143-73.138 0-40.391 32.748-73.138 73.143-73.138 40.394 0 73.143 32.747 73.143 73.138 0 40.392-32.749 73.138-73.143 73.138Zm182.857 0c-40.394 0-73.143-32.746-73.143-73.138 0-40.391 32.749-73.138 73.143-73.138s73.143 32.747 73.143 73.138c0 40.392-32.749 73.138-73.143 73.138Z"/><path d="M530.092 365.573H278.697c-30.274 0-54.822-24.542-54.822-54.819V59.377c0-48.836 59.051-73.292 93.582-38.763l251.395 251.377c34.537 34.534 10.074 93.576-38.766 93.576l.006.006Z"/><path d="M968.377 804.581H713.8c-30.657 0-55.514-24.855-55.514-55.51V494.512c0-49.454 59.794-74.223 94.765-39.254l254.579 254.559c34.97 34.969 10.2 94.759-39.259 94.759l.006.005Z"/><path d="M968.377 365.693H713.8c-30.657 0-55.514-24.856-55.514-55.511V55.623c0-49.453 59.794-74.223 94.765-39.254l254.579 254.559c34.97 34.969 10.2 94.759-39.259 94.759l.006.006Z"/></svg>