<svg xmlns="http://www.w3.org/2000/svg" xmlns:svg="http://www.w3.org/2000/svg" id="svg1" width="512" height="512" version="1.1" viewBox="0 0 512 512" xml:space="preserve"><g id="layer1"><rect style="fill:#576bff;fill-opacity:1" id="rect1" width="512" height="512" x="0" y="0" rx="171" ry="171"/><path id="path1" fill="#fff" d="m 277.76154,75.694566 c -4.01485,-8.332439 -12.49879,-13.634903 -21.81598,-13.634903 -9.31718,0 -17.72546,5.302464 -21.8157,13.634903 L 185.42281,175.91114 76.646607,191.96992 c -9.089929,1.36351 -16.66488,7.72644 -19.467609,16.43769 -2.802729,8.71134 -0.530249,18.33136 5.984213,24.77 l 78.931049,78.09782 -18.63448,110.36691 c -1.51499,9.08996 2.2725,18.33136 9.77169,23.70963 7.49919,5.37818 17.42247,6.05995 25.60331,1.74221 l 97.18647,-51.88842 97.18671,51.88842 c 8.18093,4.31774 18.10406,3.71171 25.60331,-1.74221 7.49911,-5.45405 11.28671,-14.61967 9.77163,-23.70963 l -18.71011,-110.36691 78.93105,-78.09782 c 6.51428,-6.43864 8.86256,-16.05866 5.98414,-24.77 -2.87844,-8.71125 -10.37773,-15.07418 -19.46761,-16.43769 L 326.46833,175.91114 Z" style="stroke-width:.757497"/></g></svg>