<?xml version="1.0" standalone="no"?>
<!DOCTYPE svg PUBLIC "-//W3C//DTD SVG 20010904//EN"
 "http://www.w3.org/TR/2001/REC-SVG-20010904/DTD/svg10.dtd">
<svg version="1.0" xmlns="http://www.w3.org/2000/svg"
 width="700.000000pt" height="700.000000pt" viewBox="0 0 700.000000 700.000000"
 preserveAspectRatio="xMidYMid meet">
<metadata>
Created by potrace 1.14, written by Peter Selinger 2001-2017
</metadata>
<g transform="translate(0.000000,700.000000) scale(0.100000,-0.100000)"
fill="#000000" stroke="none">
<path d="M2110 6990 c-30 -4 -80 -11 -110 -14 -73 -9 -248 -48 -341 -77 -41
-12 -76 -23 -79 -24 -51 -16 -187 -73 -285 -122 -128 -62 -119 -57 -255 -147
-330 -217 -597 -518 -792 -891 -71 -135 -160 -389 -193 -550 -9 -44 -19 -89
-21 -100 -4 -20 -8 -46 -24 -170 -10 -78 -8 -2785 2 -2825 4 -14 11 -56 17
-95 16 -106 20 -121 51 -241 99 -384 311 -754 595 -1039 250 -251 518 -425
843 -546 102 -39 299 -94 372 -105 19 -3 42 -7 50 -9 16 -4 54 -10 165 -24 81
-11 2769 -8 2830 3 22 4 81 13 130 22 855 143 1578 779 1830 1610 19 63 37
124 39 136 33 160 39 194 53 318 10 83 10 2690 1 2790 -9 90 -16 146 -23 180
-3 14 -8 39 -11 55 -3 17 -10 48 -16 70 -5 22 -12 50 -14 63 -6 29 -52 181
-64 207 -5 11 -24 56 -41 100 -113 278 -288 536 -517 762 -102 102 -298 260
-362 293 -14 7 -27 16 -30 20 -9 13 -224 128 -295 159 -169 72 -325 122 -470
151 -27 5 -61 12 -75 15 -14 3 -43 7 -65 10 -22 3 -56 8 -75 12 -50 9 -2754
12 -2820 3z"/>
</g>
</svg>
