<svg xmlns="http://www.w3.org/2000/svg" width="933.333" height="933.333" preserveAspectRatio="xMidYMid meet" version="1.0" viewBox="0 0 700 700"><metadata>Created by potrace 1.14, written by Peter Selinger 2001-2017</metadata><g fill="#000" stroke="none"><path d="M2160 6994 c-313 -32 -568 -100 -824 -218 -364 -169 -710 -466 -933 -801 -162 -243 -259 -458 -328 -729 -73 -288 -70 -203 -70 -1741 0 -1539 -3 -1462 70 -1751 210 -824 855 -1469 1679 -1679 289 -73 213 -70 1746 -70 1533 0 1461 -3 1746 70 827 212 1469 854 1679 1679 73 289 70 213 70 1746 0 1533 3 1457 -70 1746 -212 833 -878 1489 -1711 1688 -264 63 -190 60 -1669 62 -742 0 -1366 0 -1385 -2z m1478 -874 c107 -46 114 -59 481 -816 183 -379 339 -694 345 -700 6 -6 94 -24 196 -38 904 -131 1339 -199 1376 -216 64 -28 133 -97 165 -165 37 -77 40 -175 8 -262 -20 -55 -49 -86 -587 -618 l-565 -560 132 -780 c99 -580 131 -792 126 -825 -9 -67 -60 -164 -107 -204 -89 -77 -215 -106 -316 -73 -27 9 -341 173 -698 363 -356 191 -660 352 -674 357 -24 9 -98 -28 -703 -351 -372 -199 -697 -367 -722 -373 -201 -51 -406 105 -408 308 -1 44 45 337 127 823 l129 755 -566 560 c-537 532 -566 563 -586 618 -26 70 -28 174 -5 241 21 62 101 148 167 180 45 22 160 41 807 136 415 61 760 112 765 114 6 2 165 321 354 709 381 782 374 771 497 823 75 32 181 29 262 -6z" transform="translate(0.000000,700.000000) scale(0.100000,-0.100000)"/></g></svg>